<?xml version="1.0" encoding="utf-8"?>
<!-- Generator: Adobe Illustrator 24.3.0, SVG Export Plug-In . SVG Version: 6.00 Build 0)  -->
<svg version="1.0" id="Icons" xmlns="http://www.w3.org/2000/svg" xmlns:xlink="http://www.w3.org/1999/xlink" x="0px" y="0px"
	 viewBox="0 0 70.453 56" style="enable-background:new 0 0 70.453 56;" xml:space="preserve">
<g>
	<path style="fill:#131313;" d="M55.365,22.803h-2.673c-0.622,2.229,0.358,4.176,4.017,4.176
		C56.178,24.886,55.699,23.303,55.365,22.803z"/>
	<path style="fill:#131313;" d="M22.843,1.688v9.021v1.353H33.53V0H22.843V1.688z M23.784,0.528h8.853v1.838h-8.853V0.528z
		 M23.784,3.585h8.853v1.837h-8.853V3.585z M23.784,6.641h8.853v1.838h-8.853V6.641z M23.784,9.697h8.853v1.838h-8.853V9.697z"/>
	<path style="fill:#131313;" d="M12.436,5.274h-0.496c0.022,0.197-0.032,0.402-0.184,0.554l-1.296,1.295h1.975v0.69l9.353,2.897
		V1.688l-9.353,2.896V5.274z"/>
	<path style="fill:#131313;" d="M35.638,19.429l8.056,4.029c0.054,0.027,0.108,0.04,0.162,0.04c0.092,0,0.185-0.039,0.255-0.105
		c0.071-0.069,0.107-0.155,0.107-0.258V13.117h-8.579V19.429z"/>
	<path style="fill:#131313;" d="M70.177,38.121c-0.333-9.354-6.347-35.078-6.347-35.078l1.342-2.037C65.456,0.575,65.145,0,64.63,0
		H45.271H34.584v12.063h10.687v9.688h8.202h2.673c0.333,0.5,0.813,2.083,1.344,4.176c1.598,6.294,3.667,17.205,3.667,17.205
		c-2.364,1.936-0.787,3-0.044,3.1l1.683,0.223l0.213,5.539l0.359,0.046c-0.212,1.644-1.725,2.81-3.367,2.598
		c-7.3-0.944-1.525-11.013-11.715-15.297l-0.517,1.231C57.303,44.582,51.317,56,60.393,56c0.955,0,1.877-0.313,2.644-0.906
		c0.919-0.708,1.506-1.733,1.654-2.883l-1.103-0.143l1.462,0.189l1.607-5.292l1.379,0.183C71.335,47.584,70.36,43.245,70.177,38.121
		z M56.702,15.562h-8.797v-1.131h8.797V15.562z M56.702,13h-8.797v-1.131h8.797V13z M56.702,10.439h-8.797V9.308h8.797V10.439z
		 M56.702,7.877h-8.797V6.746h8.797V7.877z M61.838,17.102c-0.72,0-1.305-0.585-1.305-1.305c0-0.72,0.585-1.304,1.305-1.304
		c0.72,0,1.305,0.584,1.305,1.304C63.143,16.517,62.558,17.102,61.838,17.102z"/>
	<path style="fill:#131313;" d="M3.673,5.828L2.377,7.123h1.149C3.504,6.925,3.559,6.721,3.71,6.57l1.296-1.296H3.857
		C3.879,5.471,3.825,5.676,3.673,5.828z"/>
	<path style="fill:#131313;" d="M6.368,5.828L5.072,7.123h1.149C6.199,6.925,6.253,6.721,6.405,6.57L7.7,5.274H6.552
		C6.574,5.471,6.52,5.676,6.368,5.828z"/>
	<path style="fill:#131313;" d="M0,7.123h0.832C0.81,6.925,0.864,6.721,1.016,6.57l1.296-1.296H1.303
		C0.478,5.274,0.366,6.11,0,7.123z"/>
	<path style="fill:#131313;" d="M9.062,5.828L7.767,7.123h1.149C8.893,6.925,8.948,6.721,9.099,6.57l1.296-1.296H9.246
		C9.268,5.471,9.214,5.676,9.062,5.828z"/>
</g>
</svg>
