<?xml version="1.0" encoding="utf-8"?>
<!-- Generator: Adobe Illustrator 24.3.0, SVG Export Plug-In . SVG Version: 6.00 Build 0)  -->
<svg version="1.0" id="Icons" xmlns="http://www.w3.org/2000/svg" xmlns:xlink="http://www.w3.org/1999/xlink" x="0px" y="0px"
	 viewBox="0 0 56.001 56" style="enable-background:new 0 0 56.001 56;" xml:space="preserve">
<path style="fill:#131313;" d="M55.408,5.996c-0.298-0.297-0.709-0.462-1.158-0.462c-0.549,0-1.106,0.242-1.528,0.664
	c-0.604,0.604-1.321,1.832-1.631,2.794l-1.018,3.153c-0.208,0.642-0.961,1.353-1.613,1.523l-3.534,0.922
	c-0.991,0.258-2.333,1.027-3.057,1.75l-2.197,2.197c-0.18,0.18-0.42,0.278-0.676,0.278c-0.256,0-0.497-0.099-0.676-0.278
	l-0.857-0.857c-0.373-0.372-0.373-0.979,0-1.352l2.197-2.197c0.724-0.724,1.493-2.066,1.75-3.056l0.922-3.533
	c0.17-0.652,0.881-1.406,1.523-1.612l3.153-1.018c0.963-0.311,2.191-1.028,2.794-1.632c0.364-0.364,0.595-0.827,0.652-1.305
	c0.062-0.53-0.102-1.033-0.449-1.381C49.629,0.217,48.982,0,48.232,0c-0.424,0-0.852,0.07-1.239,0.201L40.89,2.281
	c-0.955,0.325-2.261,1.138-2.974,1.851l-3.145,3.145c-0.762,0.763-1.36,2.204-1.36,3.282v0.363c0,0.722-0.448,1.805-0.959,2.316
	l-0.211,0.211c-0.32,0.32-0.61,0.612-0.82,0.825c-0.106,0.108-0.192,0.196-0.252,0.258c-0.183,0.191-0.258,0.365-0.274,0.517
	c0.011-0.144,0.064-0.28,0.15-0.378c-0.032,0.037-0.201,0.213-0.461,0.473c-0.114,0.114-0.187,0.252-0.238,0.399l-2.062-2.062
	c-0.412-0.412-0.961-0.638-1.546-0.638c-0.585,0-1.134,0.227-1.546,0.638l-2.051,2.051c-0.853,0.852-0.853,2.239,0,3.091
	l0.057,0.057l-10.55,7.574c-0.605,0.435-1.437,1.237-1.893,1.826L0.426,41.412c-0.628,0.812-0.553,2.016,0.174,2.743l1.91,1.909
	c0.343,0.344,0.79,0.532,1.259,0.532c0.539,0,1.046-0.252,1.391-0.69l10.063-12.788c0.371-0.472,1.117-1.133,1.629-1.446
	l12.015-7.329l2.793,2.794L24.33,39.153c-0.312,0.512-0.974,1.258-1.446,1.629L10.097,50.845c-0.407,0.32-0.657,0.79-0.687,1.289
	c-0.03,0.499,0.163,0.995,0.529,1.361l1.91,1.91C12.228,55.783,12.767,56,13.326,56c0.465,0,0.914-0.15,1.266-0.422l13.333-10.331
	c0.589-0.457,1.391-1.289,1.826-1.894l7.574-10.549l0.057,0.057c0.412,0.412,0.961,0.639,1.545,0.639
	c0.585,0,1.134-0.227,1.546-0.639l2.051-2.051c0.412-0.412,0.639-0.961,0.639-1.546c0-0.586-0.227-1.134-0.639-1.546l-2.06-2.06
	c0.177-0.062,0.311-0.154,0.398-0.241c0.26-0.26,0.436-0.428,0.472-0.461c-0.015,0.014-0.065,0.055-0.143,0.091
	c0.191-0.113,0.502-0.424,1.365-1.287l0.211-0.211c0.511-0.511,1.593-0.959,2.316-0.959h0.363c1.078,0,2.52-0.597,3.282-1.36
	l3.145-3.145c0.713-0.713,1.526-2.019,1.851-2.974l2.079-6.103C56.125,8.064,56.097,6.686,55.408,5.996z"/>
</svg>
