<?xml version="1.0" encoding="utf-8"?>
<!-- Generator: Adobe Illustrator 24.3.0, SVG Export Plug-In . SVG Version: 6.00 Build 0)  -->
<svg version="1.0" id="Icons" xmlns="http://www.w3.org/2000/svg" xmlns:xlink="http://www.w3.org/1999/xlink" x="0px" y="0px"
	 viewBox="0 0 52.246 56" style="enable-background:new 0 0 52.246 56;" xml:space="preserve">
<path style="fill-rule:evenodd;clip-rule:evenodd;fill:#131313;" d="M49.963,39.98c-2.743-3.271-7.198-4.283-10.99-2.838
	C28.198,26.26,28.298,25.841,18.639,13.822c1.578-3.476,1.046-7.674-1.693-10.639c-2.76-3.043-7.008-3.92-10.601-2.561l5.636,6.191
	l-5.851,5.369l-5.466-5.99c-1.302,3.367-0.702,7.322,1.888,10.163c2.705,2.947,6.824,3.862,10.396,2.621
	C23.832,30.413,24.016,30.47,33.48,42.491c-1.333,3.264-0.873,7.121,1.537,10.015c2.45,2.938,6.299,4.071,9.788,3.217l-5.195-6.209
	l6.096-5.105l5.381,6.462C52.908,47.462,52.619,43.137,49.963,39.98z"/>
</svg>
