<?xml version="1.0" encoding="utf-8"?>
<!-- Generator: Adobe Illustrator 24.3.0, SVG Export Plug-In . SVG Version: 6.00 Build 0)  -->
<svg version="1.0" id="Icons" xmlns="http://www.w3.org/2000/svg" xmlns:xlink="http://www.w3.org/1999/xlink" x="0px" y="0px"
	 viewBox="0 0 58.031 56" style="enable-background:new 0 0 58.031 56;" xml:space="preserve">
<g>
	<path style="fill:#131313;" d="M33.562,31.829h-4.298c-0.667,0-1.208,0.541-1.208,1.208v1.862h3.754c0.287,0,0.52,0.232,0.52,0.521
		v0.685c0,0.287-0.233,0.52-0.52,0.52h-3.754v2.015h3.754c0.287,0,0.52,0.232,0.52,0.52v0.685c0,0.287-0.233,0.52-0.52,0.52h-3.754
		v2.013h3.754c0.287,0,0.52,0.235,0.52,0.522v0.687c0,0.287-0.233,0.52-0.52,0.52h-3.754v2.014h3.754c0.287,0,0.52,0.233,0.52,0.52
		v0.685c0,0.289-0.233,0.522-0.52,0.522h-3.754v2.014h3.754c0.287,0,0.52,0.233,0.52,0.52v0.685c0,0.289-0.233,0.521-0.52,0.521
		h-3.754v2.387c0,1.117,0.905,2.024,2.024,2.024h2.663c1.118,0,2.026-0.908,2.026-2.024V33.037
		C34.771,32.37,34.229,31.829,33.562,31.829z"/>
	<path style="fill:#131313;" d="M58.031,7.146h-0.959V4.782h-2.063V4.603C55.009,2.06,52.949,0,50.404,0H12.421
		C9.877,0,7.818,2.06,7.818,4.603v0.179H5.755v3.165L5.754,7.044C2.582,7.046,0,9.631,0,12.805v6.165
		c0,3.177,2.585,5.761,5.761,5.761h21.043c1.908,0,3.459,1.551,3.459,3.459v3.638h2.302V28.19c0-3.176-2.585-5.76-5.761-5.76H5.761
		c-1.908,0-3.459-1.552-3.459-3.46v-6.165c0-1.904,1.548-3.455,3.453-3.459v2.272h2.063v0.179c0,2.543,2.06,4.604,4.603,4.604
		h37.983c2.545,0,4.604-2.061,4.604-4.604v-0.179h2.063V9.255h0.959V7.146z"/>
</g>
</svg>
