<?xml version="1.0" encoding="utf-8"?>
<!-- Generator: Adobe Illustrator 24.3.0, SVG Export Plug-In . SVG Version: 6.00 Build 0)  -->
<svg version="1.0" id="Icons" xmlns="http://www.w3.org/2000/svg" xmlns:xlink="http://www.w3.org/1999/xlink" x="0px" y="0px"
	 viewBox="0 0 56 56" style="enable-background:new 0 0 56 56;" xml:space="preserve">
<g>
	<polygon style="fill:#131313;" points="26.457,20.562 38.004,26.976 39.637,25.344 28.09,18.929 	"/>
	<path style="fill:#131313;" d="M53.738,5.867l-1.862,1.862c-0.643,0.643-1.696,0.643-2.339,0l-1.266-1.266
		c-0.643-0.643-0.643-1.696,0-2.339l1.862-1.862C45.271-1.018,38.72-0.73,34.152,3.123l5.046,5.046
		c-0.385,0.161-0.747,0.399-1.062,0.714l-2.674,2.674l11.547,6.415l0.108-0.108c0.315-0.315,0.553-0.677,0.714-1.061l5.046,5.046
		C56.73,17.28,57.018,10.729,53.738,5.867z"/>
	<polygon style="fill:#131313;" points="17.452,29.567 28.999,35.982 30.632,34.349 19.085,27.934 	"/>
	<polygon style="fill:#131313;" points="23.455,23.564 35.003,29.978 36.636,28.345 25.088,21.931 	"/>
	<polygon style="fill:#131313;" points="29.459,17.56 41.006,23.975 42.639,22.342 31.092,15.927 	"/>
	<polygon style="fill:#131313;" points="32.461,14.559 44.008,20.973 45.641,19.34 34.094,12.926 	"/>
	<polygon style="fill:#131313;" points="20.454,26.565 32.001,32.98 33.634,31.347 22.087,24.932 	"/>
	<polygon style="fill:#131313;" points="5.445,41.574 16.992,47.988 18.625,46.355 7.078,39.941 	"/>
	<polygon style="fill:#131313;" points="2.444,44.576 13.991,50.99 15.624,49.357 4.077,42.943 	"/>
	<path style="fill:#131313;" d="M0.967,46.052c-1.245,1.245-1.294,3.234-0.109,4.42l4.67,4.67c1.186,1.185,3.174,1.136,4.42-0.109
		l2.674-2.674L1.075,45.944L0.967,46.052z"/>
	<polygon style="fill:#131313;" points="8.447,38.572 19.994,44.987 21.627,43.354 10.08,36.939 	"/>
	<polygon style="fill:#131313;" points="14.45,32.569 25.998,38.983 27.63,37.35 16.083,30.936 	"/>
	<polygon style="fill:#131313;" points="11.449,35.571 22.996,41.985 24.629,40.352 13.082,33.937 	"/>
</g>
</svg>
