<?xml version="1.0" encoding="utf-8"?>
<!-- Generator: Adobe Illustrator 24.3.0, SVG Export Plug-In . SVG Version: 6.00 Build 0)  -->
<svg version="1.0" id="Layer_1" xmlns="http://www.w3.org/2000/svg" xmlns:xlink="http://www.w3.org/1999/xlink" x="0px" y="0px"
	 viewBox="0 0 54 54" style="enable-background:new 0 0 54 54;" xml:space="preserve">
<path style="fill:#C2E8E5;" d="M50.479,36.893l1.99-1.991c1.259-1.259,1.881-4.37,0.162-6.089c-0.685-0.686-1.679-1.063-2.797-1.063
	c-0.727,0-1.467,0.161-2.106,0.442l-2.933-9.282c1.036-1.03,2.711-2.706,3.422-3.425c2.702-2.737,5.999-9.841,3.067-12.774
	c-0.772-0.772-1.865-1.163-3.247-1.163c-3.212,0-7.526,2.194-9.54,4.243l-1.175,1.192c-0.731,0.74-1.581,1.602-2.198,2.231
	l-9.313-2.943c0.22-0.501,0.367-1.066,0.419-1.648c0.117-1.31-0.253-2.466-1.043-3.256c-0.685-0.686-1.679-1.063-2.797-1.063
	c-1.255,0-2.548,0.481-3.292,1.226l-1.991,1.991L5.966,0L0,5.965l9.077,5.586l-1.763,1.763l5.927,5.927l3.173-3.174l7.856,4.835
	c-3.323,3.809-5.868,7.04-7.583,9.632l-8.855-1.887l-5.164,5.164l9.68,4.504l0.138,3.147l3.243,0.284l4.46,9.585l5.164-5.164
	l-1.918-8.999c2.694-1.743,6.002-4.281,9.674-7.421l4.824,7.838l-3.174,3.174l5.927,5.927l1.763-1.763L48.035,54L54,48.035
	L50.479,36.893z M42.924,40.874l-2.238,2.238l-2.354-2.353l2.798-2.798l-7.43-12.072l-1.124,0.98
	c-4.378,3.813-8.259,6.797-11.225,8.628l-0.758,0.468l2.001,9.388l-1.639,1.64l-3.552-7.634l-2.491-0.218l-0.108-2.467l-7.797-3.628
	l1.64-1.639l9.226,1.966l0.47-0.746c1.783-2.831,4.747-6.591,8.81-11.175l0.998-1.126L16.04,12.869l-2.798,2.798l-2.353-2.353
	l2.238-2.238L4.049,5.49l2.618-2.618l11.142,3.521l3.075-3.076c0.239-0.239,0.867-0.485,1.505-0.485
	c0.257,0,0.729,0.042,1.011,0.323c0.244,0.244,0.36,0.709,0.312,1.244c-0.051,0.574-0.278,1.074-0.475,1.272l-1.853,1.852
	l14.464,4.571l0.544-0.561c0.553-0.57,1.748-1.781,2.728-2.774l1.18-1.196c1.618-1.646,5.271-3.488,7.738-3.488
	c0.473,0,1.11,0.073,1.46,0.423c1.374,1.374-0.723,6.825-3.078,9.211c-0.853,0.864-3.105,3.115-3.948,3.947l-0.55,0.543
	l4.555,14.416l1.853-1.852c0.239-0.239,0.867-0.486,1.506-0.486c0.256,0,0.729,0.042,1.01,0.323
	c0.572,0.572,0.306,2.048-0.162,2.516l-3.076,3.075l3.521,11.142l-2.618,2.618L42.924,40.874z"/>
</svg>
