<?xml version="1.0" encoding="utf-8"?>
<!-- Generator: Adobe Illustrator 24.3.0, SVG Export Plug-In . SVG Version: 6.00 Build 0)  -->
<svg version="1.0" id="Layer_1" xmlns="http://www.w3.org/2000/svg" xmlns:xlink="http://www.w3.org/1999/xlink" x="0px" y="0px"
	 viewBox="0 0 60.426 54" style="enable-background:new 0 0 60.426 54;" xml:space="preserve">
<g>
	<path style="fill:#C2E8E5;" d="M24.319,0v32.486l-6.797,4.508l-7.088-4.701c1.178-2.127,0.874-4.865-0.922-6.67
		c-1.053-1.057-2.453-1.64-3.943-1.64s-2.89,0.582-3.943,1.64c-2.17,2.179-2.17,5.725,0,7.904c1.053,1.058,2.453,1.64,3.943,1.64
		c1.125,0,2.199-0.333,3.11-0.952l6.516,4.322l-6.514,4.321c-0.912-0.619-1.986-0.952-3.111-0.952c-1.49,0-2.89,0.582-3.943,1.64
		c-2.17,2.179-2.17,5.725,0,7.904c1.053,1.058,2.453,1.64,3.943,1.64s2.89-0.583,3.942-1.64c1.797-1.804,2.101-4.542,0.923-6.669
		l7.087-4.7l6.797,4.508V54h36.107V0H24.319z M3.45,31.713c-1.173-1.179-1.173-3.096,0-4.275c0.567-0.569,1.32-0.883,2.121-0.883
		s1.553,0.314,2.12,0.883c1.173,1.179,1.173,3.096-0.001,4.275c-0.566,0.569-1.319,0.883-2.119,0.883S4.016,32.282,3.45,31.713z
		 M7.69,49.634c-0.566,0.569-1.319,0.883-2.119,0.883s-1.554-0.314-2.121-0.883c-1.173-1.179-1.173-3.096,0-4.275
		c0.567-0.569,1.32-0.883,2.121-0.883s1.553,0.314,2.12,0.883C8.864,46.538,8.864,48.456,7.69,49.634z M19.848,38.537l4.471-2.965
		v5.931L19.848,38.537z M57.854,51.429H26.891v-5.135l3.652,2.422c0.218,0.145,0.465,0.214,0.709,0.214
		c0.417,0,0.826-0.202,1.073-0.575c0.392-0.592,0.231-1.39-0.361-1.782l-5.073-3.365v-3.386h5.143v-2.571h-5.143v-4.063
		c0-0.001,0-0.003,0-0.004V2.571h30.964V51.429z"/>
	<rect x="38.462" y="37.251" style="fill:#C2E8E5;" width="6.429" height="2.571"/>
	<rect x="51.319" y="37.251" style="fill:#C2E8E5;" width="6.429" height="2.571"/>
	<path style="fill:#C2E8E5;" d="M34.344,28.359c-0.014,0.098,0.018,0.184,0.097,0.259c0.079,0.074,0.209,0.131,0.39,0.168
		c0.181,0.037,0.425,0.056,0.731,0.056c0.27,0,0.497-0.009,0.683-0.028c0.186-0.019,0.344-0.051,0.474-0.098
		c0.13-0.047,0.239-0.105,0.328-0.175c0.088-0.07,0.175-0.161,0.258-0.273l12.851-17.682c0.093-0.131,0.149-0.247,0.167-0.35
		c0.019-0.103-0.011-0.191-0.09-0.266c-0.079-0.075-0.209-0.131-0.39-0.168c-0.181-0.037-0.425-0.056-0.731-0.056
		c-0.27,0-0.497,0.009-0.683,0.028c-0.186,0.019-0.347,0.052-0.481,0.098c-0.135,0.047-0.244,0.108-0.328,0.182
		c-0.083,0.075-0.167,0.164-0.251,0.266L34.518,28.002C34.415,28.142,34.358,28.261,34.344,28.359z"/>
	<path style="fill:#C2E8E5;" d="M47.857,19.07c-0.753,0-1.396,0.119-1.93,0.357c-0.534,0.238-0.971,0.572-1.31,1.001
		c-0.339,0.429-0.588,0.936-0.746,1.519c-0.158,0.583-0.237,1.225-0.237,1.925c0,0.7,0.065,1.339,0.195,1.918
		c0.13,0.579,0.353,1.076,0.669,1.491c0.316,0.416,0.738,0.74,1.268,0.973c0.53,0.233,1.19,0.35,1.979,0.35
		c0.743,0,1.382-0.117,1.917-0.35c0.534-0.233,0.973-0.56,1.317-0.98c0.343-0.42,0.597-0.926,0.76-1.519
		c0.163-0.593,0.244-1.257,0.244-1.995c0-0.625-0.061-1.223-0.181-1.792c-0.121-0.569-0.335-1.069-0.641-1.498
		c-0.307-0.429-0.728-0.77-1.262-1.022C49.365,19.196,48.684,19.07,47.857,19.07z M49.153,25.111
		c-0.046,0.35-0.123,0.637-0.23,0.861c-0.107,0.224-0.249,0.39-0.425,0.497c-0.177,0.107-0.4,0.161-0.669,0.161
		c-0.232,0-0.437-0.04-0.613-0.119c-0.176-0.079-0.325-0.224-0.446-0.434c-0.121-0.21-0.214-0.499-0.279-0.868
		c-0.065-0.369-0.098-0.842-0.098-1.421c0-0.504,0.028-0.931,0.083-1.281c0.056-0.35,0.142-0.635,0.258-0.854
		c0.116-0.219,0.262-0.378,0.439-0.476c0.176-0.098,0.381-0.147,0.613-0.147c0.251,0,0.47,0.051,0.655,0.154
		c0.186,0.103,0.335,0.266,0.446,0.49c0.112,0.224,0.195,0.516,0.251,0.875c0.056,0.359,0.083,0.796,0.083,1.309
		C49.223,24.344,49.2,24.761,49.153,25.111z"/>
	<path style="fill:#C2E8E5;" d="M33.626,18.223c0.316,0.416,0.739,0.74,1.269,0.973c0.529,0.234,1.189,0.35,1.979,0.35
		c0.744,0,1.382-0.116,1.917-0.35c0.534-0.233,0.974-0.56,1.318-0.98c0.343-0.42,0.596-0.926,0.76-1.519
		c0.162-0.593,0.244-1.258,0.244-1.995c0-0.625-0.06-1.222-0.181-1.792c-0.121-0.569-0.335-1.069-0.642-1.498
		c-0.306-0.429-0.727-0.77-1.261-1.022c-0.535-0.252-1.215-0.378-2.042-0.378c-0.753,0-1.396,0.119-1.93,0.357
		c-0.534,0.238-0.971,0.572-1.31,1.001c-0.34,0.429-0.588,0.936-0.746,1.519c-0.158,0.583-0.237,1.225-0.237,1.925
		c0,0.7,0.065,1.339,0.195,1.918C33.087,17.311,33.31,17.808,33.626,18.223z M35.605,13.449c0.056-0.35,0.141-0.635,0.258-0.854
		c0.116-0.219,0.262-0.378,0.439-0.476c0.176-0.098,0.381-0.147,0.613-0.147c0.251,0,0.469,0.051,0.655,0.154
		c0.186,0.103,0.334,0.266,0.446,0.49c0.112,0.224,0.195,0.516,0.251,0.875c0.056,0.359,0.083,0.796,0.083,1.309
		c0,0.485-0.023,0.903-0.07,1.253c-0.046,0.35-0.123,0.637-0.23,0.861c-0.107,0.224-0.249,0.39-0.426,0.497
		c-0.176,0.108-0.399,0.161-0.669,0.161c-0.232,0-0.437-0.04-0.613-0.119c-0.177-0.079-0.326-0.224-0.446-0.434
		c-0.121-0.21-0.213-0.499-0.279-0.868c-0.065-0.369-0.097-0.842-0.097-1.421C35.521,14.226,35.549,13.799,35.605,13.449z"/>
</g>
</svg>
