<?xml version="1.0" encoding="utf-8"?>
<!-- Generator: Adobe Illustrator 24.3.0, SVG Export Plug-In . SVG Version: 6.00 Build 0)  -->
<svg version="1.0" id="Icons" xmlns="http://www.w3.org/2000/svg" xmlns:xlink="http://www.w3.org/1999/xlink" x="0px" y="0px"
	 viewBox="0 0 77.978 78" style="enable-background:new 0 0 77.978 78;" xml:space="preserve">
<path style="fill:#131313;" d="M77.956,6.389c-0.071-1.997-0.289-3.275-0.289-3.275L53.421,25.167
	c-0.091-0.11-0.187-0.217-0.29-0.32c-0.103-0.103-0.21-0.199-0.32-0.29L74.863,0.311c0,0-1.278-0.219-3.275-0.289
	c-7.372-0.261-24.515,1.496-23.03,23.734c-0.649,0.212-1.26,0.575-1.776,1.091c-0.794,0.794-1.227,1.811-1.302,2.85
	c-1.736,0.43-3.463,0.868-5.187,1.368c-0.433-0.412-0.959-0.737-1.544-0.929c-1.629-0.534-3.047,0.074-4.552,0.638
	c-1.344,0.504-2.672,1.047-3.986,1.624c-2.131,0.935-4.224,1.955-6.262,3.079c-4.402,2.427-8.602,5.36-12.271,8.803
	c-3.344,3.138-6.277,6.917-8.389,10.987c-1.098,2.117-1.928,4.293-2.608,6.57c-0.351,1.177-0.599,2.451-0.669,3.678
	c-0.037,0.646,0.013,1.268,0.185,1.893c0.045,0.165,0.452,1.685,0.386,1.012c0.157,1.609,2.463,2.62,3.327,0.879
	c0.184-0.371,0.606-0.664,0.869-0.983c0.433-0.525,0.735-1.081,1.024-1.691c0.417-0.882,0.805-1.778,1.209-2.666
	c0.806-1.769,1.858-3.533,2.911-5.171c1.257-1.955,2.116-3.09,3.452-4.65c1.346-1.572,2.811-3.03,4.336-4.429
	c3.204-2.941,6.426-5.114,10.437-7.308c1.974-1.079,3.999-2.063,6.058-2.967c2.445-1.073,5.34-1.581,6.792-3.965
	c0.169-0.278,0.291-0.562,0.372-0.848c1.128-0.379,2.241-0.781,3.334-1.261c0.559-0.245,1.06-0.521,1.533-0.826
	c0.158,0.233,0.339,0.456,0.546,0.663c0.07,0.07,0.143,0.137,0.216,0.201c-0.662,1.181-1.254,2.374-1.765,3.638
	c-0.277,0.684-0.553,1.368-0.829,2.052c-2.266,1.473-2.784,4.311-3.836,6.709c-0.873,1.989-1.82,3.945-2.856,5.854
	c-2.208,4.069-4.458,7.414-7.42,10.641c-1.399,1.524-2.857,2.989-4.429,4.335c-0.433,0.371-0.874,0.731-1.32,1.086
	c-0.124,0.099-0.19,0.153-0.224,0.181c-0.014,0.007-0.083,0.054-0.305,0.215c-0.867,0.631-1.724,1.269-2.623,1.854
	c-1.69,1.1-3.517,2.192-5.35,3.027c-0.888,0.404-1.786,0.787-2.666,1.209c-0.61,0.293-1.165,0.59-1.691,1.024
	c-0.319,0.263-0.612,0.685-0.983,0.869c-1.739,0.863-0.731,3.169,0.879,3.327c-0.673-0.066,0.847,0.341,1.012,0.386
	c0.626,0.172,1.247,0.222,1.893,0.185c1.227-0.07,2.501-0.318,3.678-0.67c2.208-0.659,4.322-1.456,6.381-2.51
	c4.146-2.122,7.99-5.091,11.177-8.487c3.39-3.613,6.286-7.742,8.69-12.068c1.168-2.102,2.225-4.264,3.192-6.465
	c0.577-1.314,1.121-2.642,1.624-3.986c0.564-1.505,1.171-2.923,0.638-4.552c-0.217-0.663-0.605-1.252-1.099-1.713
	c0.131-0.302,0.261-0.605,0.392-0.907c0.588-1.361,1.044-2.741,1.438-4.166c0.927-0.133,1.821-0.556,2.535-1.269
	c0.516-0.516,0.879-1.127,1.091-1.776C76.46,30.905,78.217,13.762,77.956,6.389z M51.943,30.007c-1.097,1.097-2.876,1.097-3.973,0
	c-1.097-1.097-1.097-2.876,0-3.973c1.097-1.097,2.876-1.097,3.973,0C53.04,27.131,53.04,28.91,51.943,30.007z"/>
</svg>
