<?xml version="1.0" encoding="utf-8"?>
<!-- Generator: Adobe Illustrator 24.3.0, SVG Export Plug-In . SVG Version: 6.00 Build 0)  -->
<svg version="1.0" id="Layer_3" xmlns="http://www.w3.org/2000/svg" xmlns:xlink="http://www.w3.org/1999/xlink" x="0px" y="0px"
	 viewBox="0 0 229.739 46" style="enable-background:new 0 0 229.739 46;" xml:space="preserve">
<g>
	<path style="fill:#131313;" d="M44.429,18.679l-0.42,0.001c-1.048-0.001-2.143-0.825-2.433-1.832l-1.423-3.45
		c-0.491-0.925-0.288-2.288,0.452-3.028l0.039-0.038c0.741-0.742,0.742-1.954,0.001-2.695l-2.179-2.179
		c-0.741-0.741-1.954-0.741-2.695,0.001l-0.039,0.038c-0.74,0.74-2.101,0.941-3.023,0.443l-3.227-1.358
		c-1.004-0.302-1.825-1.408-1.825-2.455l-0.001-0.222C27.655,0.857,26.798,0,25.75,0L22.67,0c-1.047,0-1.907,0.857-1.905,1.905
		l-0.002,0.194c-0.001,1.048-0.824,2.144-1.832,2.43l-3.167,1.281c-0.93,0.48-2.297,0.271-3.039-0.471L12.515,5.13
		C11.773,4.388,10.56,4.388,9.82,5.128l-2.18,2.18C6.899,8.049,6.9,9.261,7.642,10.003l0.152,0.152
		c0.741,0.741,0.93,2.095,0.42,3.012l-1.379,3.137c-0.32,0.997-1.436,1.813-2.484,1.815l-0.263-0.003
		c-1.049,0.001-1.906,0.857-1.908,1.906l0,3.081c0.001,1.048,0.857,1.907,1.905,1.905l0.108,0.002
		c1.048-0.001,2.127,0.828,2.4,1.839l0.818,2.112l5.196-5.196c-0.548-3.545,0.542-7.294,3.272-10.025
		c4.553-4.553,11.931-4.553,16.481-0.003c4.553,4.553,4.553,11.932,0,16.485c-1.968,1.968-4.852,2.751-4.852,2.751
		c-1.202,0.328-2.22,0.587-2.258,0.575c-0.036-0.01-0.695-0.021-1.379-0.02c-0.35,0-0.929-0.076-1.572-0.198l-5.286,5.286
		l1.475,0.655c0.995,0.322,1.812,1.424,1.811,2.452c-0.001,1.026,0.858,1.866,1.905,1.866l3.08,0.002
		c1.048-0.002,1.906-0.809,1.906-1.798c0-0.99,0.828-2.022,1.838-2.298l3.495-1.388c0.931-0.479,2.299-0.264,3.041,0.477
		l0.103,0.103c0.742,0.741,1.955,0.741,2.695,0.001l2.18-2.18c0.74-0.74,0.74-1.953-0.002-2.695l-0.057-0.057
		c-0.741-0.741-0.934-2.099-0.429-3.016l1.436-3.351c0.306-1.001,1.416-1.819,2.463-1.819l0.475,0.001
		c1.047,0,1.905-0.858,1.905-1.905l-0.002-3.082C46.335,19.537,45.477,18.68,44.429,18.679z"/>
	<path style="fill:#131313;" d="M21.586,30.732c0.309,0.084,0.617,0.13,0.886,0.117l3.497-0.039
		c0.766-0.037,1.835-0.511,2.377-1.053l3.157-3.157c0.542-0.542,1.016-1.611,1.053-2.377l0.553-3.882
		c0.037-0.766-0.376-0.948-0.917-0.407l-4.821,4.821c-0.542,0.542-1.428,0.542-1.97,0l-4.156-4.156c-0.542-0.542-0.542-1.429,0-1.97
		l4.892-4.893c0.542-0.542,0.359-0.949-0.406-0.904l-3.955,0.598c-0.765,0.044-1.835,0.524-2.377,1.066l-3.157,3.157
		c-0.542,0.542-1.032,1.611-1.089,2.375l-0.14,3.328c-0.025,0.344,0.044,0.748,0.174,1.139l-0.449,0.449l-7.585,7.585l-5.845,5.845
		c-1.745,1.745-1.745,4.574,0,6.318c1.745,1.744,4.573,1.745,6.318,0l5.845-5.845l7.585-7.585L21.586,30.732z"/>
	<polygon style="fill:#131313;" points="65.97,14.992 72.858,14.992 72.858,32.8 74.93,32.8 74.93,14.992 81.818,14.992 
		81.818,13.2 65.97,13.2 	"/>
	<path style="fill:#131313;" d="M98.659,14.319c-1.559-0.857-3.309-1.287-5.25-1.287s-3.7,0.434-5.277,1.302
		c-1.578,0.868-2.81,2.058-3.696,3.569c-0.887,1.513-1.33,3.211-1.33,5.097s0.443,3.584,1.33,5.096s2.118,2.702,3.696,3.57
		c1.577,0.868,3.336,1.302,5.277,1.302s3.691-0.429,5.25-1.288c1.559-0.858,2.786-2.048,3.683-3.57
		c0.896-1.521,1.344-3.224,1.344-5.109s-0.448-3.589-1.344-5.11C101.445,16.368,100.218,15.179,98.659,14.319z M100.55,27.158
		c-0.71,1.241-1.69,2.212-2.94,2.911c-1.251,0.7-2.65,1.051-4.2,1.051s-2.954-0.351-4.214-1.051c-1.26-0.699-2.25-1.67-2.968-2.911
		C85.509,25.917,85.15,24.53,85.15,23s0.359-2.917,1.078-4.158c0.718-1.241,1.708-2.212,2.968-2.912s2.664-1.05,4.214-1.05
		s2.949,0.35,4.2,1.05c1.25,0.7,2.23,1.671,2.94,2.912c0.709,1.241,1.063,2.628,1.063,4.158S101.259,25.917,100.55,27.158z"/>
	<path style="fill:#131313;" d="M122.151,14.319c-1.559-0.857-3.309-1.287-5.25-1.287s-3.7,0.434-5.277,1.302
		c-1.578,0.868-2.81,2.058-3.696,3.569c-0.887,1.513-1.33,3.211-1.33,5.097s0.443,3.584,1.33,5.096s2.118,2.702,3.696,3.57
		c1.577,0.868,3.336,1.302,5.277,1.302s3.691-0.429,5.25-1.288c1.559-0.858,2.786-2.048,3.683-3.57
		c0.896-1.521,1.344-3.224,1.344-5.109s-0.448-3.589-1.344-5.11C124.937,16.368,123.709,15.179,122.151,14.319z M124.041,27.158
		c-0.71,1.241-1.69,2.212-2.94,2.911c-1.251,0.7-2.65,1.051-4.2,1.051s-2.954-0.351-4.214-1.051c-1.26-0.699-2.25-1.67-2.968-2.911
		C109,25.917,108.641,24.53,108.641,23s0.359-2.917,1.078-4.158c0.718-1.241,1.708-2.212,2.968-2.912s2.664-1.05,4.214-1.05
		s2.949,0.35,4.2,1.05c1.25,0.7,2.23,1.671,2.94,2.912c0.709,1.241,1.063,2.628,1.063,4.158S124.75,25.917,124.041,27.158z"/>
	<polygon style="fill:#131313;" points="133.897,13.2 131.825,13.2 131.825,32.8 144.873,32.8 144.873,31.008 133.897,31.008 	"/>
	<path style="fill:#131313;" d="M159.348,21.502c-1.026-0.364-2.286-0.687-3.779-0.966c-1.158-0.225-1.988-0.435-2.492-0.63
		c-0.504-0.196-0.756-0.49-0.756-0.883c0-0.821,0.849-1.231,2.548-1.231c1.717,0,3.537,0.485,5.46,1.456l1.988-4.788
		c-0.99-0.561-2.133-0.984-3.431-1.274c-1.297-0.289-2.618-0.434-3.962-0.434c-1.96,0-3.626,0.289-4.998,0.868
		c-1.372,0.578-2.403,1.372-3.094,2.38s-1.036,2.128-1.036,3.359c0,1.419,0.373,2.544,1.12,3.374
		c0.746,0.831,1.624,1.429,2.632,1.792c1.008,0.364,2.269,0.705,3.78,1.022c1.176,0.243,2.021,0.467,2.534,0.672
		c0.513,0.206,0.77,0.514,0.77,0.924c0,0.355-0.196,0.621-0.588,0.798c-0.392,0.178-1.046,0.267-1.96,0.267
		c-1.063,0-2.175-0.163-3.332-0.49c-1.157-0.326-2.203-0.761-3.136-1.302l-2.128,4.815c0.989,0.616,2.254,1.106,3.794,1.471
		c1.54,0.363,3.122,0.546,4.746,0.546c1.96,0,3.626-0.294,4.998-0.882c1.372-0.589,2.403-1.382,3.094-2.381
		c0.69-0.998,1.036-2.113,1.036-3.346c0-1.418-0.378-2.538-1.134-3.359C161.266,22.459,160.374,21.866,159.348,21.502z"/>
	<polygon style="fill:#131313;" points="177.828,20.144 171.725,20.144 171.725,13.2 165.116,13.2 165.116,32.8 171.725,32.8 
		171.725,25.576 177.828,25.576 177.828,32.8 184.437,32.8 184.437,13.2 177.828,13.2 	"/>
	<path style="fill:#131313;" d="M203.588,14.067c-1.68-0.877-3.574-1.315-5.684-1.315s-4.004,0.438-5.684,1.315
		c-1.681,0.878-2.996,2.096-3.948,3.654s-1.429,3.318-1.429,5.278s0.477,3.72,1.429,5.277c0.952,1.56,2.268,2.777,3.948,3.654
		c1.68,0.877,3.574,1.316,5.684,1.316s4.004-0.439,5.684-1.316c1.681-0.877,2.996-2.095,3.948-3.654
		c0.952-1.558,1.428-3.317,1.428-5.277s-0.476-3.72-1.428-5.278S205.269,14.945,203.588,14.067z M201.712,25.59
		c-0.392,0.737-0.919,1.307-1.582,1.708c-0.662,0.401-1.404,0.602-2.226,0.602s-1.563-0.2-2.226-0.602
		c-0.663-0.401-1.19-0.971-1.582-1.708c-0.393-0.737-0.589-1.601-0.589-2.59s0.196-1.853,0.589-2.59
		c0.392-0.737,0.919-1.307,1.582-1.708c0.662-0.401,1.404-0.603,2.226-0.603s1.563,0.201,2.226,0.603
		c0.663,0.401,1.19,0.971,1.582,1.708c0.393,0.737,0.588,1.601,0.588,2.59S202.105,24.853,201.712,25.59z"/>
	<path style="fill:#131313;" d="M228.648,16.672c-0.729-1.12-1.764-1.979-3.108-2.576c-1.344-0.597-2.921-0.896-4.731-0.896h-9.437
		v19.6h6.608v-4.816h2.828c1.811,0,3.388-0.298,4.731-0.896c1.345-0.598,2.38-1.456,3.108-2.576c0.728-1.12,1.092-2.427,1.092-3.92
		S229.375,17.792,228.648,16.672z M222.404,22.286c-0.448,0.401-1.12,0.602-2.016,0.602h-2.408v-4.592h2.408
		c0.896,0,1.567,0.201,2.016,0.602c0.448,0.402,0.672,0.967,0.672,1.694S222.852,21.885,222.404,22.286z"/>
</g>
</svg>
