<?xml version="1.0" encoding="utf-8"?>
<!-- Generator: Adobe Illustrator 24.3.0, SVG Export Plug-In . SVG Version: 6.00 Build 0)  -->
<svg version="1.0" id="Capa_1" xmlns="http://www.w3.org/2000/svg" xmlns:xlink="http://www.w3.org/1999/xlink" x="0px" y="0px"
	 viewBox="0 0 25 25" style="enable-background:new 0 0 25 25;" xml:space="preserve">
<path style="fill:#131313;" d="M0,10.251c0,5.652,4.599,10.251,10.251,10.251c2.475,0,4.749-0.882,6.522-2.348L23.619,25L25,23.619
	l-6.846-6.846c1.466-1.773,2.348-4.047,2.348-6.522C20.502,4.599,15.904,0,10.251,0C4.599,0,0,4.599,0,10.251z M1.953,10.251
	c0-4.576,3.723-8.298,8.298-8.298s8.298,3.723,8.298,8.298s-3.723,8.298-8.298,8.298S1.953,14.827,1.953,10.251z"/>
</svg>
