<?xml version="1.0" encoding="utf-8"?>
<!-- Generator: Adobe Illustrator 24.3.0, SVG Export Plug-In . SVG Version: 6.00 Build 0)  -->
<svg version="1.0" id="Layer_1" xmlns="http://www.w3.org/2000/svg" xmlns:xlink="http://www.w3.org/1999/xlink" x="0px" y="0px"
	 viewBox="0 0 57.774 54" style="enable-background:new 0 0 57.774 54;" xml:space="preserve">
<g>
	<path style="fill:#C2E8E5;" d="M19.905,34.339c-0.036-0.078-0.079-0.136-0.131-0.174c-0.051-0.038-0.106-0.056-0.166-0.056h-4.592
		l1.359-1.458c0.684-0.709,1.233-1.332,1.648-1.868c0.414-0.536,0.735-1.025,0.963-1.467c0.228-0.443,0.378-0.855,0.45-1.237
		c0.072-0.382,0.108-0.772,0.108-1.166c0-0.451-0.073-0.873-0.221-1.266c-0.147-0.392-0.371-0.73-0.67-1.016
		c-0.3-0.285-0.677-0.508-1.13-0.668c-0.453-0.16-0.983-0.24-1.589-0.24c-0.384,0-0.753,0.038-1.107,0.113s-0.678,0.168-0.972,0.278
		c-0.294,0.11-0.542,0.223-0.743,0.338c-0.201,0.116-0.339,0.212-0.414,0.287c-0.075,0.075-0.128,0.14-0.158,0.193
		c-0.03,0.053-0.054,0.116-0.072,0.188c-0.018,0.072-0.032,0.157-0.041,0.254c-0.009,0.097-0.013,0.218-0.013,0.362
		c0,0.213,0.008,0.394,0.023,0.54c0.015,0.148,0.035,0.266,0.059,0.353c0.024,0.088,0.055,0.151,0.095,0.188
		c0.039,0.038,0.085,0.057,0.139,0.057c0.078,0,0.186-0.048,0.324-0.146c0.138-0.097,0.31-0.204,0.518-0.32
		c0.207-0.116,0.447-0.221,0.72-0.315c0.273-0.094,0.587-0.141,0.941-0.141c0.252,0,0.471,0.04,0.657,0.118
		c0.186,0.079,0.341,0.186,0.464,0.325c0.123,0.138,0.216,0.299,0.279,0.484c0.063,0.185,0.094,0.381,0.094,0.588
		c0,0.226-0.025,0.464-0.076,0.715c-0.051,0.251-0.146,0.525-0.284,0.823c-0.138,0.298-0.33,0.627-0.576,0.988
		c-0.246,0.361-0.57,0.761-0.972,1.2l-2.017,2.257c-0.12,0.132-0.218,0.253-0.293,0.362c-0.075,0.11-0.137,0.223-0.185,0.339
		c-0.048,0.116-0.081,0.247-0.099,0.395c-0.018,0.148-0.027,0.325-0.027,0.532c0,0.219,0.013,0.398,0.041,0.536
		c0.027,0.138,0.071,0.243,0.131,0.315c0.06,0.072,0.138,0.121,0.234,0.146c0.096,0.025,0.21,0.038,0.342,0.038h6.699
		c0.06,0,0.114-0.017,0.162-0.051c0.048-0.035,0.087-0.093,0.117-0.174c0.03-0.081,0.052-0.186,0.068-0.315
		c0.015-0.128,0.023-0.284,0.023-0.465c0-0.176-0.009-0.328-0.027-0.456C19.968,34.522,19.941,34.418,19.905,34.339z"/>
	<path style="fill:#C2E8E5;" d="M26.635,36.146c0.147,0.016,0.329,0.024,0.545,0.024c0.228,0,0.414-0.008,0.558-0.024
		c0.144-0.016,0.261-0.039,0.351-0.07c0.09-0.031,0.153-0.07,0.189-0.117c0.036-0.047,0.054-0.102,0.054-0.165v-2.202h1.035
		c0.108,0,0.194-0.083,0.257-0.249c0.063-0.166,0.094-0.409,0.094-0.729c0-0.358-0.034-0.613-0.104-0.767
		c-0.069-0.153-0.152-0.23-0.248-0.23h-1.035v-7.328c0-0.069-0.03-0.128-0.09-0.179c-0.06-0.05-0.155-0.092-0.284-0.127
		c-0.129-0.035-0.301-0.06-0.518-0.075c-0.216-0.016-0.477-0.023-0.783-0.023c-0.282,0-0.522,0.006-0.72,0.019
		c-0.198,0.013-0.362,0.033-0.491,0.061c-0.129,0.028-0.229,0.063-0.302,0.104c-0.072,0.041-0.123,0.089-0.153,0.146l-3.62,6.67
		c-0.06,0.119-0.11,0.232-0.149,0.339c-0.039,0.107-0.069,0.22-0.09,0.338c-0.021,0.119-0.036,0.253-0.045,0.4
		c-0.009,0.148-0.013,0.321-0.013,0.522c0,0.244,0.01,0.441,0.031,0.588c0.021,0.148,0.054,0.261,0.099,0.339
		c0.045,0.078,0.1,0.129,0.167,0.151c0.066,0.022,0.141,0.033,0.225,0.033h4.457v2.202c0,0.062,0.016,0.117,0.05,0.165
		c0.033,0.047,0.093,0.086,0.18,0.117C26.371,36.107,26.488,36.13,26.635,36.146z M26.054,31.616h-3.088l3.07-5.597h0.018V31.616z"
		/>
	<path style="fill:#C2E8E5;" d="M30.272,38.813c0.081,0.05,0.2,0.087,0.356,0.112c0.156,0.025,0.357,0.038,0.603,0.038
		c0.198,0,0.362-0.007,0.491-0.023c0.129-0.016,0.237-0.04,0.324-0.07c0.087-0.032,0.154-0.072,0.202-0.122
		c0.048-0.05,0.087-0.116,0.117-0.198l5.375-15.804c0.03-0.107,0.039-0.199,0.027-0.278c-0.012-0.078-0.057-0.143-0.135-0.193
		c-0.078-0.05-0.193-0.087-0.347-0.112c-0.153-0.025-0.356-0.038-0.608-0.038c-0.192,0-0.356,0.008-0.491,0.023
		c-0.135,0.016-0.245,0.04-0.329,0.071c-0.084,0.031-0.15,0.073-0.198,0.127c-0.048,0.053-0.084,0.121-0.108,0.202l-5.384,15.795
		c-0.036,0.107-0.048,0.199-0.036,0.277C30.145,38.698,30.191,38.763,30.272,38.813z"/>
	<path style="fill:#C2E8E5;" d="M39.839,35.854c0.006,0.072,0.052,0.132,0.139,0.179c0.087,0.047,0.224,0.081,0.41,0.103
		c0.186,0.022,0.438,0.033,0.756,0.033c0.234,0,0.431-0.005,0.59-0.014c0.159-0.009,0.289-0.028,0.391-0.056
		c0.102-0.028,0.181-0.068,0.239-0.118c0.057-0.05,0.104-0.116,0.14-0.197l3.835-9.285c0.048-0.119,0.09-0.231,0.126-0.334
		c0.036-0.104,0.065-0.213,0.086-0.33c0.021-0.116,0.037-0.241,0.05-0.376c0.012-0.135,0.018-0.293,0.018-0.475
		c0-0.226-0.011-0.407-0.031-0.546c-0.021-0.138-0.053-0.245-0.095-0.32c-0.042-0.075-0.099-0.124-0.171-0.146
		c-0.072-0.022-0.162-0.033-0.27-0.033h-6.924c-0.06,0-0.113,0.019-0.158,0.057c-0.045,0.038-0.084,0.1-0.117,0.188
		c-0.033,0.088-0.058,0.2-0.077,0.334c-0.018,0.135-0.027,0.296-0.027,0.485c0,0.376,0.032,0.651,0.094,0.823
		c0.063,0.173,0.158,0.259,0.284,0.259h4.898l-4.123,9.502C39.853,35.693,39.833,35.782,39.839,35.854z"/>
	<path style="fill:#C2E8E5;" d="M57.774,20.62h-3.622C51.727,8.607,41.273,0,28.886,0C16.504,0,6.05,8.607,3.619,20.62H0v17.858
		h8.762V20.62H6.253C8.631,10.076,17.916,2.571,28.886,2.571c10.975,0,20.26,7.505,22.633,18.048h-2.507v17.858h2.946
		C48.6,44,43.027,47.917,36.702,49.19v-2.589H26.214V54h10.488v-2.192c7.738-1.394,14.52-6.344,18.213-13.331h2.859V20.62z
		 M6.19,35.906H2.571V23.191H6.19V35.906z M34.131,51.429h-5.345v-2.256h5.345V51.429z M55.203,35.906h-3.619V23.191h3.619V35.906z"
		/>
</g>
</svg>
